<svg xmlns="http://www.w3.org/2000/svg" xmlns:svg="http://www.w3.org/2000/svg" id="svg6" width="32" height="32" x="0" y="0" enable-background="new 0 0 595.275 311.111" version="1.1" viewBox="0 0 32 32" xml:space="preserve"><metadata id="metadata12"/><rect id="rect2" width="32" height="32" x="0" y="0" style="fill:#0082c9"/><path id="path4" d="m 15.999199,6.0318983 a 9.9654149,9.9654149 0 0 0 -9.965415,9.9654147 9.9654149,9.9654149 0 0 0 9.965415,9.965415 9.9654149,9.9654149 0 0 0 5.169159,-1.457563 c 1.224769,0.486701 3.968061,1.930628 4.621016,1.306907 0.682289,-0.651593 -0.801012,-3.718323 -1.156666,-4.857881 a 9.9654149,9.9654149 0 0 0 1.331324,-4.956546 9.9654149,9.9654149 0 0 0 -9.965414,-9.964584 z m 0.0012,3.7888343 a 6.1790721,6.1792383 0 0 1 6.179072,6.1790724 6.1790721,6.1792383 0 0 1 -6.179072,6.179072 6.1790721,6.1792383 0 0 1 -6.1790725,-6.179072 6.1790721,6.1792383 0 0 1 6.1790725,-6.1790724 z" style="fill:#fff;stroke-width:.19932491"/></svg>